<mxfile host="app.diagrams.net" modified="2020-09-24T09:35:04.613Z" agent="5.0 (Windows NT 10.0; WOW64) AppleWebKit/537.36 (KHTML, like Gecko) Chrome/78.0.3904.108 Safari/537.36" etag="PhULJdJNxq3gH1hPb_vU" version="13.7.5" type="github">
  <diagram name="Page-1" id="efa7a0a1-bf9b-a30e-e6df-94a7791c09e9">
    <mxGraphModel dx="1424" dy="1853" grid="1" gridSize="10" guides="1" tooltips="1" connect="1" arrows="1" fold="1" page="1" pageScale="1" pageWidth="826" pageHeight="1169" background="#ffffff" math="0" shadow="0">
      <root>
        <mxCell id="0" />
        <mxCell id="1" parent="0" />
        <mxCell id="qIVOGHb0BJN2lnLGOt8N-184" value="SKU" style="shape=table;startSize=40;container=1;collapsible=1;childLayout=tableLayout;fixedRows=1;rowLines=0;fontStyle=1;align=center;resizeLast=1;fillColor=#dae8fc;strokeColor=#6c8ebf;" vertex="1" parent="1">
          <mxGeometry x="890" y="350" width="200" height="250" as="geometry" />
        </mxCell>
        <mxCell id="qIVOGHb0BJN2lnLGOt8N-185" value="" style="shape=partialRectangle;collapsible=0;dropTarget=0;pointerEvents=0;top=0;left=0;bottom=1;right=0;points=[[0,0.5],[1,0.5]];portConstraint=eastwest;fillColor=#CCFFCC;" vertex="1" parent="qIVOGHb0BJN2lnLGOt8N-184">
          <mxGeometry y="40" width="200" height="30" as="geometry" />
        </mxCell>
        <mxCell id="qIVOGHb0BJN2lnLGOt8N-186" value="PK" style="shape=partialRectangle;connectable=0;top=0;left=0;bottom=0;right=0;fontStyle=1;overflow=hidden;fillColor=#CCFFCC;" vertex="1" parent="qIVOGHb0BJN2lnLGOt8N-185">
          <mxGeometry width="30" height="30" as="geometry" />
        </mxCell>
        <mxCell id="qIVOGHb0BJN2lnLGOt8N-187" value="SKU_ID" style="shape=partialRectangle;connectable=0;top=0;left=0;bottom=0;right=0;align=left;spacingLeft=6;fontStyle=5;overflow=hidden;fillColor=#CCFFCC;" vertex="1" parent="qIVOGHb0BJN2lnLGOt8N-185">
          <mxGeometry x="30" width="170" height="30" as="geometry" />
        </mxCell>
        <mxCell id="qIVOGHb0BJN2lnLGOt8N-188" value="" style="shape=partialRectangle;collapsible=0;dropTarget=0;pointerEvents=0;top=0;left=0;bottom=0;right=0;points=[[0,0.5],[1,0.5]];portConstraint=eastwest;fillColor=#CCFFCC;" vertex="1" parent="qIVOGHb0BJN2lnLGOt8N-184">
          <mxGeometry y="70" width="200" height="30" as="geometry" />
        </mxCell>
        <mxCell id="qIVOGHb0BJN2lnLGOt8N-189" value="" style="shape=partialRectangle;connectable=0;top=0;left=0;bottom=0;right=0;editable=1;overflow=hidden;fillColor=#CCFFCC;" vertex="1" parent="qIVOGHb0BJN2lnLGOt8N-188">
          <mxGeometry width="30" height="30" as="geometry" />
        </mxCell>
        <mxCell id="qIVOGHb0BJN2lnLGOt8N-190" value="商品ID&#xa;" style="shape=partialRectangle;connectable=0;top=0;left=0;bottom=0;right=0;align=left;spacingLeft=6;overflow=hidden;fillColor=#CCFFCC;" vertex="1" parent="qIVOGHb0BJN2lnLGOt8N-188">
          <mxGeometry x="30" width="170" height="30" as="geometry" />
        </mxCell>
        <mxCell id="qIVOGHb0BJN2lnLGOt8N-191" value="" style="shape=partialRectangle;collapsible=0;dropTarget=0;pointerEvents=0;top=0;left=0;bottom=0;right=0;points=[[0,0.5],[1,0.5]];portConstraint=eastwest;fillColor=#CCFFCC;" vertex="1" parent="qIVOGHb0BJN2lnLGOt8N-184">
          <mxGeometry y="100" width="200" height="30" as="geometry" />
        </mxCell>
        <mxCell id="qIVOGHb0BJN2lnLGOt8N-192" value="" style="shape=partialRectangle;connectable=0;top=0;left=0;bottom=0;right=0;editable=1;overflow=hidden;fillColor=#CCFFCC;" vertex="1" parent="qIVOGHb0BJN2lnLGOt8N-191">
          <mxGeometry width="30" height="30" as="geometry" />
        </mxCell>
        <mxCell id="qIVOGHb0BJN2lnLGOt8N-193" value="价格&#xa;" style="shape=partialRectangle;connectable=0;top=0;left=0;bottom=0;right=0;align=left;spacingLeft=6;overflow=hidden;fillColor=#CCFFCC;" vertex="1" parent="qIVOGHb0BJN2lnLGOt8N-191">
          <mxGeometry x="30" width="170" height="30" as="geometry" />
        </mxCell>
        <mxCell id="qIVOGHb0BJN2lnLGOt8N-194" value="" style="shape=partialRectangle;collapsible=0;dropTarget=0;pointerEvents=0;top=0;left=0;bottom=0;right=0;points=[[0,0.5],[1,0.5]];portConstraint=eastwest;fillColor=#CCFFCC;" vertex="1" parent="qIVOGHb0BJN2lnLGOt8N-184">
          <mxGeometry y="130" width="200" height="30" as="geometry" />
        </mxCell>
        <mxCell id="qIVOGHb0BJN2lnLGOt8N-195" value="" style="shape=partialRectangle;connectable=0;top=0;left=0;bottom=0;right=0;editable=1;overflow=hidden;fillColor=#CCFFCC;" vertex="1" parent="qIVOGHb0BJN2lnLGOt8N-194">
          <mxGeometry width="30" height="30" as="geometry" />
        </mxCell>
        <mxCell id="qIVOGHb0BJN2lnLGOt8N-196" value="库存" style="shape=partialRectangle;connectable=0;top=0;left=0;bottom=0;right=0;align=left;spacingLeft=6;overflow=hidden;fillColor=#CCFFCC;" vertex="1" parent="qIVOGHb0BJN2lnLGOt8N-194">
          <mxGeometry x="30" width="170" height="30" as="geometry" />
        </mxCell>
        <mxCell id="qIVOGHb0BJN2lnLGOt8N-200" value="" style="shape=partialRectangle;collapsible=0;dropTarget=0;pointerEvents=0;top=0;left=0;bottom=0;right=0;points=[[0,0.5],[1,0.5]];portConstraint=eastwest;fillColor=#CCFFCC;" vertex="1" parent="qIVOGHb0BJN2lnLGOt8N-184">
          <mxGeometry y="160" width="200" height="30" as="geometry" />
        </mxCell>
        <mxCell id="qIVOGHb0BJN2lnLGOt8N-201" value="" style="shape=partialRectangle;connectable=0;top=0;left=0;bottom=0;right=0;editable=1;overflow=hidden;fillColor=#CCFFCC;" vertex="1" parent="qIVOGHb0BJN2lnLGOt8N-200">
          <mxGeometry width="30" height="30" as="geometry" />
        </mxCell>
        <mxCell id="qIVOGHb0BJN2lnLGOt8N-202" value="创建人" style="shape=partialRectangle;connectable=0;top=0;left=0;bottom=0;right=0;align=left;spacingLeft=6;overflow=hidden;fillColor=#CCFFCC;labelBorderColor=none;" vertex="1" parent="qIVOGHb0BJN2lnLGOt8N-200">
          <mxGeometry x="30" width="170" height="30" as="geometry" />
        </mxCell>
        <mxCell id="qIVOGHb0BJN2lnLGOt8N-203" value="" style="shape=partialRectangle;collapsible=0;dropTarget=0;pointerEvents=0;top=0;left=0;bottom=0;right=0;points=[[0,0.5],[1,0.5]];portConstraint=eastwest;fillColor=#CCFFCC;" vertex="1" parent="qIVOGHb0BJN2lnLGOt8N-184">
          <mxGeometry y="190" width="200" height="30" as="geometry" />
        </mxCell>
        <mxCell id="qIVOGHb0BJN2lnLGOt8N-204" value="" style="shape=partialRectangle;connectable=0;top=0;left=0;bottom=0;right=0;editable=1;overflow=hidden;fillColor=#CCFFCC;" vertex="1" parent="qIVOGHb0BJN2lnLGOt8N-203">
          <mxGeometry width="30" height="30" as="geometry" />
        </mxCell>
        <mxCell id="qIVOGHb0BJN2lnLGOt8N-205" value="创建时间" style="shape=partialRectangle;connectable=0;top=0;left=0;bottom=0;right=0;align=left;spacingLeft=6;overflow=hidden;fillColor=#CCFFCC;" vertex="1" parent="qIVOGHb0BJN2lnLGOt8N-203">
          <mxGeometry x="30" width="170" height="30" as="geometry" />
        </mxCell>
        <mxCell id="qIVOGHb0BJN2lnLGOt8N-197" value="" style="shape=partialRectangle;collapsible=0;dropTarget=0;pointerEvents=0;top=0;left=0;bottom=0;right=0;points=[[0,0.5],[1,0.5]];portConstraint=eastwest;fillColor=#CCFFCC;" vertex="1" parent="qIVOGHb0BJN2lnLGOt8N-184">
          <mxGeometry y="220" width="200" height="30" as="geometry" />
        </mxCell>
        <mxCell id="qIVOGHb0BJN2lnLGOt8N-198" value="" style="shape=partialRectangle;connectable=0;top=0;left=0;bottom=0;right=0;editable=1;overflow=hidden;fillColor=#CCFFCC;" vertex="1" parent="qIVOGHb0BJN2lnLGOt8N-197">
          <mxGeometry width="30" height="30" as="geometry" />
        </mxCell>
        <mxCell id="qIVOGHb0BJN2lnLGOt8N-199" value="" style="shape=partialRectangle;connectable=0;top=0;left=0;bottom=0;right=0;align=left;spacingLeft=6;overflow=hidden;fillColor=#CCFFCC;" vertex="1" parent="qIVOGHb0BJN2lnLGOt8N-197">
          <mxGeometry x="30" width="170" height="30" as="geometry" />
        </mxCell>
        <mxCell id="qIVOGHb0BJN2lnLGOt8N-162" value="商品" style="shape=table;startSize=40;container=1;collapsible=1;childLayout=tableLayout;fixedRows=1;rowLines=0;fontStyle=1;align=center;resizeLast=1;fillColor=#dae8fc;strokeColor=#6c8ebf;" vertex="1" parent="1">
          <mxGeometry x="1310" y="350" width="200" height="260" as="geometry" />
        </mxCell>
        <mxCell id="qIVOGHb0BJN2lnLGOt8N-163" value="" style="shape=partialRectangle;collapsible=0;dropTarget=0;pointerEvents=0;top=0;left=0;bottom=1;right=0;points=[[0,0.5],[1,0.5]];portConstraint=eastwest;fillColor=#CCFFCC;" vertex="1" parent="qIVOGHb0BJN2lnLGOt8N-162">
          <mxGeometry y="40" width="200" height="30" as="geometry" />
        </mxCell>
        <mxCell id="qIVOGHb0BJN2lnLGOt8N-164" value="PK" style="shape=partialRectangle;connectable=0;top=0;left=0;bottom=0;right=0;fontStyle=1;overflow=hidden;fillColor=#CCFFCC;" vertex="1" parent="qIVOGHb0BJN2lnLGOt8N-163">
          <mxGeometry width="30" height="30" as="geometry" />
        </mxCell>
        <mxCell id="qIVOGHb0BJN2lnLGOt8N-165" value="商品ID" style="shape=partialRectangle;connectable=0;top=0;left=0;bottom=0;right=0;align=left;spacingLeft=6;fontStyle=5;overflow=hidden;fillColor=#CCFFCC;" vertex="1" parent="qIVOGHb0BJN2lnLGOt8N-163">
          <mxGeometry x="30" width="170" height="30" as="geometry" />
        </mxCell>
        <mxCell id="qIVOGHb0BJN2lnLGOt8N-166" value="" style="shape=partialRectangle;collapsible=0;dropTarget=0;pointerEvents=0;top=0;left=0;bottom=0;right=0;points=[[0,0.5],[1,0.5]];portConstraint=eastwest;fillColor=#CCFFCC;" vertex="1" parent="qIVOGHb0BJN2lnLGOt8N-162">
          <mxGeometry y="70" width="200" height="30" as="geometry" />
        </mxCell>
        <mxCell id="qIVOGHb0BJN2lnLGOt8N-167" value="" style="shape=partialRectangle;connectable=0;top=0;left=0;bottom=0;right=0;editable=1;overflow=hidden;fillColor=#CCFFCC;" vertex="1" parent="qIVOGHb0BJN2lnLGOt8N-166">
          <mxGeometry width="30" height="30" as="geometry" />
        </mxCell>
        <mxCell id="qIVOGHb0BJN2lnLGOt8N-168" value="商品名称&#xa;" style="shape=partialRectangle;connectable=0;top=0;left=0;bottom=0;right=0;align=left;spacingLeft=6;overflow=hidden;fillColor=#CCFFCC;" vertex="1" parent="qIVOGHb0BJN2lnLGOt8N-166">
          <mxGeometry x="30" width="170" height="30" as="geometry" />
        </mxCell>
        <mxCell id="qIVOGHb0BJN2lnLGOt8N-169" value="" style="shape=partialRectangle;collapsible=0;dropTarget=0;pointerEvents=0;top=0;left=0;bottom=0;right=0;points=[[0,0.5],[1,0.5]];portConstraint=eastwest;fillColor=#CCFFCC;" vertex="1" parent="qIVOGHb0BJN2lnLGOt8N-162">
          <mxGeometry y="100" width="200" height="30" as="geometry" />
        </mxCell>
        <mxCell id="qIVOGHb0BJN2lnLGOt8N-170" value="" style="shape=partialRectangle;connectable=0;top=0;left=0;bottom=0;right=0;editable=1;overflow=hidden;fillColor=#CCFFCC;" vertex="1" parent="qIVOGHb0BJN2lnLGOt8N-169">
          <mxGeometry width="30" height="30" as="geometry" />
        </mxCell>
        <mxCell id="qIVOGHb0BJN2lnLGOt8N-171" value="商品描述&#xa;" style="shape=partialRectangle;connectable=0;top=0;left=0;bottom=0;right=0;align=left;spacingLeft=6;overflow=hidden;fillColor=#CCFFCC;" vertex="1" parent="qIVOGHb0BJN2lnLGOt8N-169">
          <mxGeometry x="30" width="170" height="30" as="geometry" />
        </mxCell>
        <mxCell id="qIVOGHb0BJN2lnLGOt8N-172" value="" style="shape=partialRectangle;collapsible=0;dropTarget=0;pointerEvents=0;top=0;left=0;bottom=0;right=0;points=[[0,0.5],[1,0.5]];portConstraint=eastwest;fillColor=#CCFFCC;" vertex="1" parent="qIVOGHb0BJN2lnLGOt8N-162">
          <mxGeometry y="130" width="200" height="30" as="geometry" />
        </mxCell>
        <mxCell id="qIVOGHb0BJN2lnLGOt8N-173" value="" style="shape=partialRectangle;connectable=0;top=0;left=0;bottom=0;right=0;editable=1;overflow=hidden;fillColor=#CCFFCC;" vertex="1" parent="qIVOGHb0BJN2lnLGOt8N-172">
          <mxGeometry width="30" height="30" as="geometry" />
        </mxCell>
        <mxCell id="qIVOGHb0BJN2lnLGOt8N-174" value="商品状态" style="shape=partialRectangle;connectable=0;top=0;left=0;bottom=0;right=0;align=left;spacingLeft=6;overflow=hidden;fillColor=#CCFFCC;" vertex="1" parent="qIVOGHb0BJN2lnLGOt8N-172">
          <mxGeometry x="30" width="170" height="30" as="geometry" />
        </mxCell>
        <mxCell id="qIVOGHb0BJN2lnLGOt8N-175" value="" style="shape=partialRectangle;collapsible=0;dropTarget=0;pointerEvents=0;top=0;left=0;bottom=0;right=0;points=[[0,0.5],[1,0.5]];portConstraint=eastwest;fillColor=#CCFFCC;" vertex="1" parent="qIVOGHb0BJN2lnLGOt8N-162">
          <mxGeometry y="160" width="200" height="40" as="geometry" />
        </mxCell>
        <mxCell id="qIVOGHb0BJN2lnLGOt8N-176" value="" style="shape=partialRectangle;connectable=0;top=0;left=0;bottom=0;right=0;editable=1;overflow=hidden;fillColor=#CCFFCC;" vertex="1" parent="qIVOGHb0BJN2lnLGOt8N-175">
          <mxGeometry width="30" height="40" as="geometry" />
        </mxCell>
        <mxCell id="qIVOGHb0BJN2lnLGOt8N-177" value="上架时间" style="shape=partialRectangle;connectable=0;top=0;left=0;bottom=0;right=0;align=left;spacingLeft=6;overflow=hidden;fillColor=#CCFFCC;" vertex="1" parent="qIVOGHb0BJN2lnLGOt8N-175">
          <mxGeometry x="30" width="170" height="40" as="geometry" />
        </mxCell>
        <mxCell id="qIVOGHb0BJN2lnLGOt8N-178" value="" style="shape=partialRectangle;collapsible=0;dropTarget=0;pointerEvents=0;top=0;left=0;bottom=0;right=0;points=[[0,0.5],[1,0.5]];portConstraint=eastwest;fillColor=#CCFFCC;" vertex="1" parent="qIVOGHb0BJN2lnLGOt8N-162">
          <mxGeometry y="200" width="200" height="30" as="geometry" />
        </mxCell>
        <mxCell id="qIVOGHb0BJN2lnLGOt8N-179" value="" style="shape=partialRectangle;connectable=0;top=0;left=0;bottom=0;right=0;editable=1;overflow=hidden;fillColor=#CCFFCC;" vertex="1" parent="qIVOGHb0BJN2lnLGOt8N-178">
          <mxGeometry width="30" height="30" as="geometry" />
        </mxCell>
        <mxCell id="qIVOGHb0BJN2lnLGOt8N-180" value="创建人" style="shape=partialRectangle;connectable=0;top=0;left=0;bottom=0;right=0;align=left;spacingLeft=6;overflow=hidden;fillColor=#CCFFCC;" vertex="1" parent="qIVOGHb0BJN2lnLGOt8N-178">
          <mxGeometry x="30" width="170" height="30" as="geometry" />
        </mxCell>
        <mxCell id="qIVOGHb0BJN2lnLGOt8N-181" value="" style="shape=partialRectangle;collapsible=0;dropTarget=0;pointerEvents=0;top=0;left=0;bottom=0;right=0;points=[[0,0.5],[1,0.5]];portConstraint=eastwest;fillColor=#CCFFCC;" vertex="1" parent="qIVOGHb0BJN2lnLGOt8N-162">
          <mxGeometry y="230" width="200" height="30" as="geometry" />
        </mxCell>
        <mxCell id="qIVOGHb0BJN2lnLGOt8N-182" value="" style="shape=partialRectangle;connectable=0;top=0;left=0;bottom=0;right=0;editable=1;overflow=hidden;fillColor=#CCFFCC;" vertex="1" parent="qIVOGHb0BJN2lnLGOt8N-181">
          <mxGeometry width="30" height="30" as="geometry" />
        </mxCell>
        <mxCell id="qIVOGHb0BJN2lnLGOt8N-183" value="创建时间" style="shape=partialRectangle;connectable=0;top=0;left=0;bottom=0;right=0;align=left;spacingLeft=6;overflow=hidden;fillColor=#CCFFCC;" vertex="1" parent="qIVOGHb0BJN2lnLGOt8N-181">
          <mxGeometry x="30" width="170" height="30" as="geometry" />
        </mxCell>
        <mxCell id="qIVOGHb0BJN2lnLGOt8N-206" value="SKU" style="shape=table;startSize=40;container=1;collapsible=1;childLayout=tableLayout;fixedRows=1;rowLines=0;fontStyle=1;align=center;resizeLast=1;fillColor=#dae8fc;strokeColor=#6c8ebf;" vertex="1" parent="1">
          <mxGeometry x="560" y="110" width="200" height="260" as="geometry" />
        </mxCell>
        <mxCell id="qIVOGHb0BJN2lnLGOt8N-207" value="" style="shape=partialRectangle;collapsible=0;dropTarget=0;pointerEvents=0;top=0;left=0;bottom=1;right=0;points=[[0,0.5],[1,0.5]];portConstraint=eastwest;fillColor=#CCFFCC;" vertex="1" parent="qIVOGHb0BJN2lnLGOt8N-206">
          <mxGeometry y="40" width="200" height="30" as="geometry" />
        </mxCell>
        <mxCell id="qIVOGHb0BJN2lnLGOt8N-208" value="PK" style="shape=partialRectangle;connectable=0;top=0;left=0;bottom=0;right=0;fontStyle=1;overflow=hidden;fillColor=#CCFFCC;" vertex="1" parent="qIVOGHb0BJN2lnLGOt8N-207">
          <mxGeometry width="30" height="30" as="geometry" />
        </mxCell>
        <mxCell id="qIVOGHb0BJN2lnLGOt8N-209" value="ID" style="shape=partialRectangle;connectable=0;top=0;left=0;bottom=0;right=0;align=left;spacingLeft=6;fontStyle=5;overflow=hidden;fillColor=#CCFFCC;" vertex="1" parent="qIVOGHb0BJN2lnLGOt8N-207">
          <mxGeometry x="30" width="170" height="30" as="geometry" />
        </mxCell>
        <mxCell id="qIVOGHb0BJN2lnLGOt8N-210" value="" style="shape=partialRectangle;collapsible=0;dropTarget=0;pointerEvents=0;top=0;left=0;bottom=0;right=0;points=[[0,0.5],[1,0.5]];portConstraint=eastwest;fillColor=#CCFFCC;" vertex="1" parent="qIVOGHb0BJN2lnLGOt8N-206">
          <mxGeometry y="70" width="200" height="40" as="geometry" />
        </mxCell>
        <mxCell id="qIVOGHb0BJN2lnLGOt8N-211" value="" style="shape=partialRectangle;connectable=0;top=0;left=0;bottom=0;right=0;editable=1;overflow=hidden;fillColor=#CCFFCC;" vertex="1" parent="qIVOGHb0BJN2lnLGOt8N-210">
          <mxGeometry width="30" height="40" as="geometry" />
        </mxCell>
        <mxCell id="qIVOGHb0BJN2lnLGOt8N-212" value="SKU_ID" style="shape=partialRectangle;connectable=0;top=0;left=0;bottom=0;right=0;align=left;spacingLeft=6;overflow=hidden;strokeWidth=1;labelBorderColor=none;fillColor=none;" vertex="1" parent="qIVOGHb0BJN2lnLGOt8N-210">
          <mxGeometry x="30" width="170" height="40" as="geometry" />
        </mxCell>
        <mxCell id="qIVOGHb0BJN2lnLGOt8N-213" value="" style="shape=partialRectangle;collapsible=0;dropTarget=0;pointerEvents=0;top=0;left=0;bottom=0;right=0;points=[[0,0.5],[1,0.5]];portConstraint=eastwest;fillColor=#CCFFCC;" vertex="1" parent="qIVOGHb0BJN2lnLGOt8N-206">
          <mxGeometry y="110" width="200" height="30" as="geometry" />
        </mxCell>
        <mxCell id="qIVOGHb0BJN2lnLGOt8N-214" value="" style="shape=partialRectangle;connectable=0;top=0;left=0;bottom=0;right=0;editable=1;overflow=hidden;fillColor=#CCFFCC;" vertex="1" parent="qIVOGHb0BJN2lnLGOt8N-213">
          <mxGeometry width="30" height="30" as="geometry" />
        </mxCell>
        <mxCell id="qIVOGHb0BJN2lnLGOt8N-215" value="属性ID&#xa;" style="shape=partialRectangle;connectable=0;top=0;left=0;bottom=0;right=0;align=left;spacingLeft=6;overflow=hidden;fillColor=#CCFFCC;" vertex="1" parent="qIVOGHb0BJN2lnLGOt8N-213">
          <mxGeometry x="30" width="170" height="30" as="geometry" />
        </mxCell>
        <mxCell id="qIVOGHb0BJN2lnLGOt8N-216" value="" style="shape=partialRectangle;collapsible=0;dropTarget=0;pointerEvents=0;top=0;left=0;bottom=0;right=0;points=[[0,0.5],[1,0.5]];portConstraint=eastwest;fillColor=#CCFFCC;" vertex="1" parent="qIVOGHb0BJN2lnLGOt8N-206">
          <mxGeometry y="140" width="200" height="30" as="geometry" />
        </mxCell>
        <mxCell id="qIVOGHb0BJN2lnLGOt8N-217" value="" style="shape=partialRectangle;connectable=0;top=0;left=0;bottom=0;right=0;editable=1;overflow=hidden;fillColor=#CCFFCC;" vertex="1" parent="qIVOGHb0BJN2lnLGOt8N-216">
          <mxGeometry width="30" height="30" as="geometry" />
        </mxCell>
        <mxCell id="qIVOGHb0BJN2lnLGOt8N-218" value="属性值ID" style="shape=partialRectangle;connectable=0;top=0;left=0;bottom=0;right=0;align=left;spacingLeft=6;overflow=hidden;fillColor=#CCFFCC;" vertex="1" parent="qIVOGHb0BJN2lnLGOt8N-216">
          <mxGeometry x="30" width="170" height="30" as="geometry" />
        </mxCell>
        <mxCell id="qIVOGHb0BJN2lnLGOt8N-219" value="" style="shape=partialRectangle;collapsible=0;dropTarget=0;pointerEvents=0;top=0;left=0;bottom=0;right=0;points=[[0,0.5],[1,0.5]];portConstraint=eastwest;fillColor=#CCFFCC;" vertex="1" parent="qIVOGHb0BJN2lnLGOt8N-206">
          <mxGeometry y="170" width="200" height="30" as="geometry" />
        </mxCell>
        <mxCell id="qIVOGHb0BJN2lnLGOt8N-220" value="" style="shape=partialRectangle;connectable=0;top=0;left=0;bottom=0;right=0;editable=1;overflow=hidden;fillColor=#CCFFCC;" vertex="1" parent="qIVOGHb0BJN2lnLGOt8N-219">
          <mxGeometry width="30" height="30" as="geometry" />
        </mxCell>
        <mxCell id="qIVOGHb0BJN2lnLGOt8N-221" value="" style="shape=partialRectangle;connectable=0;top=0;left=0;bottom=0;right=0;align=left;spacingLeft=6;overflow=hidden;fillColor=#CCFFCC;labelBorderColor=none;" vertex="1" parent="qIVOGHb0BJN2lnLGOt8N-219">
          <mxGeometry x="30" width="170" height="30" as="geometry" />
        </mxCell>
        <mxCell id="qIVOGHb0BJN2lnLGOt8N-222" value="" style="shape=partialRectangle;collapsible=0;dropTarget=0;pointerEvents=0;top=0;left=0;bottom=0;right=0;points=[[0,0.5],[1,0.5]];portConstraint=eastwest;fillColor=#CCFFCC;" vertex="1" parent="qIVOGHb0BJN2lnLGOt8N-206">
          <mxGeometry y="200" width="200" height="30" as="geometry" />
        </mxCell>
        <mxCell id="qIVOGHb0BJN2lnLGOt8N-223" value="" style="shape=partialRectangle;connectable=0;top=0;left=0;bottom=0;right=0;editable=1;overflow=hidden;fillColor=#CCFFCC;" vertex="1" parent="qIVOGHb0BJN2lnLGOt8N-222">
          <mxGeometry width="30" height="30" as="geometry" />
        </mxCell>
        <mxCell id="qIVOGHb0BJN2lnLGOt8N-224" value="" style="shape=partialRectangle;connectable=0;top=0;left=0;bottom=0;right=0;align=left;spacingLeft=6;overflow=hidden;fillColor=#CCFFCC;" vertex="1" parent="qIVOGHb0BJN2lnLGOt8N-222">
          <mxGeometry x="30" width="170" height="30" as="geometry" />
        </mxCell>
        <mxCell id="qIVOGHb0BJN2lnLGOt8N-225" value="" style="shape=partialRectangle;collapsible=0;dropTarget=0;pointerEvents=0;top=0;left=0;bottom=0;right=0;points=[[0,0.5],[1,0.5]];portConstraint=eastwest;fillColor=#CCFFCC;" vertex="1" parent="qIVOGHb0BJN2lnLGOt8N-206">
          <mxGeometry y="230" width="200" height="30" as="geometry" />
        </mxCell>
        <mxCell id="qIVOGHb0BJN2lnLGOt8N-226" value="" style="shape=partialRectangle;connectable=0;top=0;left=0;bottom=0;right=0;editable=1;overflow=hidden;fillColor=#CCFFCC;" vertex="1" parent="qIVOGHb0BJN2lnLGOt8N-225">
          <mxGeometry width="30" height="30" as="geometry" />
        </mxCell>
        <mxCell id="qIVOGHb0BJN2lnLGOt8N-227" value="" style="shape=partialRectangle;connectable=0;top=0;left=0;bottom=0;right=0;align=left;spacingLeft=6;overflow=hidden;fillColor=#CCFFCC;" vertex="1" parent="qIVOGHb0BJN2lnLGOt8N-225">
          <mxGeometry x="30" width="170" height="30" as="geometry" />
        </mxCell>
        <mxCell id="qIVOGHb0BJN2lnLGOt8N-228" value="属性" style="shape=table;startSize=40;container=1;collapsible=1;childLayout=tableLayout;fixedRows=1;rowLines=0;fontStyle=1;align=center;resizeLast=1;fillColor=#dae8fc;strokeColor=#6c8ebf;" vertex="1" parent="1">
          <mxGeometry x="940" y="-50" width="200" height="250" as="geometry" />
        </mxCell>
        <mxCell id="qIVOGHb0BJN2lnLGOt8N-229" value="" style="shape=partialRectangle;collapsible=0;dropTarget=0;pointerEvents=0;top=0;left=0;bottom=1;right=0;points=[[0,0.5],[1,0.5]];portConstraint=eastwest;fillColor=#CCFFCC;" vertex="1" parent="qIVOGHb0BJN2lnLGOt8N-228">
          <mxGeometry y="40" width="200" height="30" as="geometry" />
        </mxCell>
        <mxCell id="qIVOGHb0BJN2lnLGOt8N-230" value="PK" style="shape=partialRectangle;connectable=0;top=0;left=0;bottom=0;right=0;fontStyle=1;overflow=hidden;fillColor=#CCFFCC;" vertex="1" parent="qIVOGHb0BJN2lnLGOt8N-229">
          <mxGeometry width="30" height="30" as="geometry" />
        </mxCell>
        <mxCell id="qIVOGHb0BJN2lnLGOt8N-231" value="属性ID" style="shape=partialRectangle;connectable=0;top=0;left=0;bottom=0;right=0;align=left;spacingLeft=6;fontStyle=5;overflow=hidden;fillColor=#CCFFCC;" vertex="1" parent="qIVOGHb0BJN2lnLGOt8N-229">
          <mxGeometry x="30" width="170" height="30" as="geometry" />
        </mxCell>
        <mxCell id="qIVOGHb0BJN2lnLGOt8N-238" value="" style="shape=partialRectangle;collapsible=0;dropTarget=0;pointerEvents=0;top=0;left=0;bottom=0;right=0;points=[[0,0.5],[1,0.5]];portConstraint=eastwest;fillColor=#CCFFCC;" vertex="1" parent="qIVOGHb0BJN2lnLGOt8N-228">
          <mxGeometry y="70" width="200" height="20" as="geometry" />
        </mxCell>
        <mxCell id="qIVOGHb0BJN2lnLGOt8N-239" value="" style="shape=partialRectangle;connectable=0;top=0;left=0;bottom=0;right=0;editable=1;overflow=hidden;fillColor=#CCFFCC;" vertex="1" parent="qIVOGHb0BJN2lnLGOt8N-238">
          <mxGeometry width="30" height="20" as="geometry" />
        </mxCell>
        <mxCell id="qIVOGHb0BJN2lnLGOt8N-240" value="所属ID" style="shape=partialRectangle;connectable=0;top=0;left=0;bottom=0;right=0;align=left;spacingLeft=6;overflow=hidden;fillColor=#CCFFCC;" vertex="1" parent="qIVOGHb0BJN2lnLGOt8N-238">
          <mxGeometry x="30" width="170" height="20" as="geometry" />
        </mxCell>
        <mxCell id="qIVOGHb0BJN2lnLGOt8N-232" value="" style="shape=partialRectangle;collapsible=0;dropTarget=0;pointerEvents=0;top=0;left=0;bottom=0;right=0;points=[[0,0.5],[1,0.5]];portConstraint=eastwest;fillColor=#CCFFCC;" vertex="1" parent="qIVOGHb0BJN2lnLGOt8N-228">
          <mxGeometry y="90" width="200" height="40" as="geometry" />
        </mxCell>
        <mxCell id="qIVOGHb0BJN2lnLGOt8N-233" value="" style="shape=partialRectangle;connectable=0;top=0;left=0;bottom=0;right=0;editable=1;overflow=hidden;fillColor=#CCFFCC;" vertex="1" parent="qIVOGHb0BJN2lnLGOt8N-232">
          <mxGeometry width="30" height="40" as="geometry" />
        </mxCell>
        <mxCell id="qIVOGHb0BJN2lnLGOt8N-234" value="名称" style="shape=partialRectangle;connectable=0;top=0;left=0;bottom=0;right=0;align=left;spacingLeft=6;overflow=hidden;strokeWidth=1;labelBorderColor=none;fillColor=none;" vertex="1" parent="qIVOGHb0BJN2lnLGOt8N-232">
          <mxGeometry x="30" width="170" height="40" as="geometry" />
        </mxCell>
        <mxCell id="qIVOGHb0BJN2lnLGOt8N-235" value="" style="shape=partialRectangle;collapsible=0;dropTarget=0;pointerEvents=0;top=0;left=0;bottom=0;right=0;points=[[0,0.5],[1,0.5]];portConstraint=eastwest;fillColor=#CCFFCC;" vertex="1" parent="qIVOGHb0BJN2lnLGOt8N-228">
          <mxGeometry y="130" width="200" height="40" as="geometry" />
        </mxCell>
        <mxCell id="qIVOGHb0BJN2lnLGOt8N-236" value="" style="shape=partialRectangle;connectable=0;top=0;left=0;bottom=0;right=0;editable=1;overflow=hidden;fillColor=#CCFFCC;" vertex="1" parent="qIVOGHb0BJN2lnLGOt8N-235">
          <mxGeometry width="30" height="40" as="geometry" />
        </mxCell>
        <mxCell id="qIVOGHb0BJN2lnLGOt8N-237" value="属性类型&#xa;" style="shape=partialRectangle;connectable=0;top=0;left=0;bottom=0;right=0;align=left;spacingLeft=6;overflow=hidden;fillColor=#CCFFCC;" vertex="1" parent="qIVOGHb0BJN2lnLGOt8N-235">
          <mxGeometry x="30" width="170" height="40" as="geometry" />
        </mxCell>
        <mxCell id="qIVOGHb0BJN2lnLGOt8N-241" value="" style="shape=partialRectangle;collapsible=0;dropTarget=0;pointerEvents=0;top=0;left=0;bottom=0;right=0;points=[[0,0.5],[1,0.5]];portConstraint=eastwest;fillColor=#CCFFCC;" vertex="1" parent="qIVOGHb0BJN2lnLGOt8N-228">
          <mxGeometry y="170" width="200" height="20" as="geometry" />
        </mxCell>
        <mxCell id="qIVOGHb0BJN2lnLGOt8N-242" value="" style="shape=partialRectangle;connectable=0;top=0;left=0;bottom=0;right=0;editable=1;overflow=hidden;fillColor=#CCFFCC;" vertex="1" parent="qIVOGHb0BJN2lnLGOt8N-241">
          <mxGeometry width="30" height="20" as="geometry" />
        </mxCell>
        <mxCell id="qIVOGHb0BJN2lnLGOt8N-243" value="" style="shape=partialRectangle;connectable=0;top=0;left=0;bottom=0;right=0;align=left;spacingLeft=6;overflow=hidden;fillColor=#CCFFCC;labelBorderColor=none;" vertex="1" parent="qIVOGHb0BJN2lnLGOt8N-241">
          <mxGeometry x="30" width="170" height="20" as="geometry" />
        </mxCell>
        <mxCell id="qIVOGHb0BJN2lnLGOt8N-244" value="" style="shape=partialRectangle;collapsible=0;dropTarget=0;pointerEvents=0;top=0;left=0;bottom=0;right=0;points=[[0,0.5],[1,0.5]];portConstraint=eastwest;fillColor=#CCFFCC;" vertex="1" parent="qIVOGHb0BJN2lnLGOt8N-228">
          <mxGeometry y="190" width="200" height="30" as="geometry" />
        </mxCell>
        <mxCell id="qIVOGHb0BJN2lnLGOt8N-245" value="" style="shape=partialRectangle;connectable=0;top=0;left=0;bottom=0;right=0;editable=1;overflow=hidden;fillColor=#CCFFCC;" vertex="1" parent="qIVOGHb0BJN2lnLGOt8N-244">
          <mxGeometry width="30" height="30" as="geometry" />
        </mxCell>
        <mxCell id="qIVOGHb0BJN2lnLGOt8N-246" value="" style="shape=partialRectangle;connectable=0;top=0;left=0;bottom=0;right=0;align=left;spacingLeft=6;overflow=hidden;fillColor=#CCFFCC;" vertex="1" parent="qIVOGHb0BJN2lnLGOt8N-244">
          <mxGeometry x="30" width="170" height="30" as="geometry" />
        </mxCell>
        <mxCell id="qIVOGHb0BJN2lnLGOt8N-247" value="" style="shape=partialRectangle;collapsible=0;dropTarget=0;pointerEvents=0;top=0;left=0;bottom=0;right=0;points=[[0,0.5],[1,0.5]];portConstraint=eastwest;fillColor=#CCFFCC;" vertex="1" parent="qIVOGHb0BJN2lnLGOt8N-228">
          <mxGeometry y="220" width="200" height="30" as="geometry" />
        </mxCell>
        <mxCell id="qIVOGHb0BJN2lnLGOt8N-248" value="" style="shape=partialRectangle;connectable=0;top=0;left=0;bottom=0;right=0;editable=1;overflow=hidden;fillColor=#CCFFCC;" vertex="1" parent="qIVOGHb0BJN2lnLGOt8N-247">
          <mxGeometry width="30" height="30" as="geometry" />
        </mxCell>
        <mxCell id="qIVOGHb0BJN2lnLGOt8N-249" value="" style="shape=partialRectangle;connectable=0;top=0;left=0;bottom=0;right=0;align=left;spacingLeft=6;overflow=hidden;fillColor=#CCFFCC;" vertex="1" parent="qIVOGHb0BJN2lnLGOt8N-247">
          <mxGeometry x="30" width="170" height="30" as="geometry" />
        </mxCell>
        <mxCell id="qIVOGHb0BJN2lnLGOt8N-250" value="属性值" style="shape=table;startSize=40;container=1;collapsible=1;childLayout=tableLayout;fixedRows=1;rowLines=0;fontStyle=1;align=center;resizeLast=1;fillColor=#dae8fc;strokeColor=#6c8ebf;" vertex="1" parent="1">
          <mxGeometry x="1260" y="-50" width="200" height="250" as="geometry" />
        </mxCell>
        <mxCell id="qIVOGHb0BJN2lnLGOt8N-251" value="" style="shape=partialRectangle;collapsible=0;dropTarget=0;pointerEvents=0;top=0;left=0;bottom=1;right=0;points=[[0,0.5],[1,0.5]];portConstraint=eastwest;fillColor=#CCFFCC;" vertex="1" parent="qIVOGHb0BJN2lnLGOt8N-250">
          <mxGeometry y="40" width="200" height="30" as="geometry" />
        </mxCell>
        <mxCell id="qIVOGHb0BJN2lnLGOt8N-252" value="PK" style="shape=partialRectangle;connectable=0;top=0;left=0;bottom=0;right=0;fontStyle=1;overflow=hidden;fillColor=#CCFFCC;" vertex="1" parent="qIVOGHb0BJN2lnLGOt8N-251">
          <mxGeometry width="30" height="30" as="geometry" />
        </mxCell>
        <mxCell id="qIVOGHb0BJN2lnLGOt8N-253" value="属性值ID" style="shape=partialRectangle;connectable=0;top=0;left=0;bottom=0;right=0;align=left;spacingLeft=6;fontStyle=5;overflow=hidden;fillColor=#CCFFCC;" vertex="1" parent="qIVOGHb0BJN2lnLGOt8N-251">
          <mxGeometry x="30" width="170" height="30" as="geometry" />
        </mxCell>
        <mxCell id="qIVOGHb0BJN2lnLGOt8N-254" value="" style="shape=partialRectangle;collapsible=0;dropTarget=0;pointerEvents=0;top=0;left=0;bottom=0;right=0;points=[[0,0.5],[1,0.5]];portConstraint=eastwest;fillColor=#CCFFCC;" vertex="1" parent="qIVOGHb0BJN2lnLGOt8N-250">
          <mxGeometry y="70" width="200" height="20" as="geometry" />
        </mxCell>
        <mxCell id="qIVOGHb0BJN2lnLGOt8N-255" value="" style="shape=partialRectangle;connectable=0;top=0;left=0;bottom=0;right=0;editable=1;overflow=hidden;fillColor=#CCFFCC;" vertex="1" parent="qIVOGHb0BJN2lnLGOt8N-254">
          <mxGeometry width="30" height="20" as="geometry" />
        </mxCell>
        <mxCell id="qIVOGHb0BJN2lnLGOt8N-256" value="属性ID" style="shape=partialRectangle;connectable=0;top=0;left=0;bottom=0;right=0;align=left;spacingLeft=6;overflow=hidden;fillColor=#CCFFCC;" vertex="1" parent="qIVOGHb0BJN2lnLGOt8N-254">
          <mxGeometry x="30" width="170" height="20" as="geometry" />
        </mxCell>
        <mxCell id="qIVOGHb0BJN2lnLGOt8N-257" value="" style="shape=partialRectangle;collapsible=0;dropTarget=0;pointerEvents=0;top=0;left=0;bottom=0;right=0;points=[[0,0.5],[1,0.5]];portConstraint=eastwest;fillColor=#CCFFCC;" vertex="1" parent="qIVOGHb0BJN2lnLGOt8N-250">
          <mxGeometry y="90" width="200" height="40" as="geometry" />
        </mxCell>
        <mxCell id="qIVOGHb0BJN2lnLGOt8N-258" value="" style="shape=partialRectangle;connectable=0;top=0;left=0;bottom=0;right=0;editable=1;overflow=hidden;fillColor=#CCFFCC;" vertex="1" parent="qIVOGHb0BJN2lnLGOt8N-257">
          <mxGeometry width="30" height="40" as="geometry" />
        </mxCell>
        <mxCell id="qIVOGHb0BJN2lnLGOt8N-259" value="所属ID" style="shape=partialRectangle;connectable=0;top=0;left=0;bottom=0;right=0;align=left;spacingLeft=6;overflow=hidden;strokeWidth=1;labelBorderColor=none;fillColor=none;" vertex="1" parent="qIVOGHb0BJN2lnLGOt8N-257">
          <mxGeometry x="30" width="170" height="40" as="geometry" />
        </mxCell>
        <mxCell id="qIVOGHb0BJN2lnLGOt8N-260" value="" style="shape=partialRectangle;collapsible=0;dropTarget=0;pointerEvents=0;top=0;left=0;bottom=0;right=0;points=[[0,0.5],[1,0.5]];portConstraint=eastwest;fillColor=#CCFFCC;" vertex="1" parent="qIVOGHb0BJN2lnLGOt8N-250">
          <mxGeometry y="130" width="200" height="40" as="geometry" />
        </mxCell>
        <mxCell id="qIVOGHb0BJN2lnLGOt8N-261" value="" style="shape=partialRectangle;connectable=0;top=0;left=0;bottom=0;right=0;editable=1;overflow=hidden;fillColor=#CCFFCC;" vertex="1" parent="qIVOGHb0BJN2lnLGOt8N-260">
          <mxGeometry width="30" height="40" as="geometry" />
        </mxCell>
        <mxCell id="qIVOGHb0BJN2lnLGOt8N-262" value="值&#xa;" style="shape=partialRectangle;connectable=0;top=0;left=0;bottom=0;right=0;align=left;spacingLeft=6;overflow=hidden;fillColor=#CCFFCC;" vertex="1" parent="qIVOGHb0BJN2lnLGOt8N-260">
          <mxGeometry x="30" width="170" height="40" as="geometry" />
        </mxCell>
        <mxCell id="qIVOGHb0BJN2lnLGOt8N-263" value="" style="shape=partialRectangle;collapsible=0;dropTarget=0;pointerEvents=0;top=0;left=0;bottom=0;right=0;points=[[0,0.5],[1,0.5]];portConstraint=eastwest;fillColor=#CCFFCC;" vertex="1" parent="qIVOGHb0BJN2lnLGOt8N-250">
          <mxGeometry y="170" width="200" height="20" as="geometry" />
        </mxCell>
        <mxCell id="qIVOGHb0BJN2lnLGOt8N-264" value="" style="shape=partialRectangle;connectable=0;top=0;left=0;bottom=0;right=0;editable=1;overflow=hidden;fillColor=#CCFFCC;" vertex="1" parent="qIVOGHb0BJN2lnLGOt8N-263">
          <mxGeometry width="30" height="20" as="geometry" />
        </mxCell>
        <mxCell id="qIVOGHb0BJN2lnLGOt8N-265" value="" style="shape=partialRectangle;connectable=0;top=0;left=0;bottom=0;right=0;align=left;spacingLeft=6;overflow=hidden;fillColor=#CCFFCC;labelBorderColor=none;" vertex="1" parent="qIVOGHb0BJN2lnLGOt8N-263">
          <mxGeometry x="30" width="170" height="20" as="geometry" />
        </mxCell>
        <mxCell id="qIVOGHb0BJN2lnLGOt8N-266" value="" style="shape=partialRectangle;collapsible=0;dropTarget=0;pointerEvents=0;top=0;left=0;bottom=0;right=0;points=[[0,0.5],[1,0.5]];portConstraint=eastwest;fillColor=#CCFFCC;" vertex="1" parent="qIVOGHb0BJN2lnLGOt8N-250">
          <mxGeometry y="190" width="200" height="30" as="geometry" />
        </mxCell>
        <mxCell id="qIVOGHb0BJN2lnLGOt8N-267" value="" style="shape=partialRectangle;connectable=0;top=0;left=0;bottom=0;right=0;editable=1;overflow=hidden;fillColor=#CCFFCC;" vertex="1" parent="qIVOGHb0BJN2lnLGOt8N-266">
          <mxGeometry width="30" height="30" as="geometry" />
        </mxCell>
        <mxCell id="qIVOGHb0BJN2lnLGOt8N-268" value="" style="shape=partialRectangle;connectable=0;top=0;left=0;bottom=0;right=0;align=left;spacingLeft=6;overflow=hidden;fillColor=#CCFFCC;" vertex="1" parent="qIVOGHb0BJN2lnLGOt8N-266">
          <mxGeometry x="30" width="170" height="30" as="geometry" />
        </mxCell>
        <mxCell id="qIVOGHb0BJN2lnLGOt8N-269" value="" style="shape=partialRectangle;collapsible=0;dropTarget=0;pointerEvents=0;top=0;left=0;bottom=0;right=0;points=[[0,0.5],[1,0.5]];portConstraint=eastwest;fillColor=#CCFFCC;" vertex="1" parent="qIVOGHb0BJN2lnLGOt8N-250">
          <mxGeometry y="220" width="200" height="30" as="geometry" />
        </mxCell>
        <mxCell id="qIVOGHb0BJN2lnLGOt8N-270" value="" style="shape=partialRectangle;connectable=0;top=0;left=0;bottom=0;right=0;editable=1;overflow=hidden;fillColor=#CCFFCC;" vertex="1" parent="qIVOGHb0BJN2lnLGOt8N-269">
          <mxGeometry width="30" height="30" as="geometry" />
        </mxCell>
        <mxCell id="qIVOGHb0BJN2lnLGOt8N-271" value="" style="shape=partialRectangle;connectable=0;top=0;left=0;bottom=0;right=0;align=left;spacingLeft=6;overflow=hidden;fillColor=#CCFFCC;" vertex="1" parent="qIVOGHb0BJN2lnLGOt8N-269">
          <mxGeometry x="30" width="170" height="30" as="geometry" />
        </mxCell>
        <mxCell id="qIVOGHb0BJN2lnLGOt8N-272" value="类目" style="shape=table;startSize=40;container=1;collapsible=1;childLayout=tableLayout;fixedRows=1;rowLines=0;fontStyle=1;align=center;resizeLast=1;fillColor=#dae8fc;strokeColor=#6c8ebf;" vertex="1" parent="1">
          <mxGeometry x="1580" y="100" width="200" height="250" as="geometry" />
        </mxCell>
        <mxCell id="qIVOGHb0BJN2lnLGOt8N-273" value="" style="shape=partialRectangle;collapsible=0;dropTarget=0;pointerEvents=0;top=0;left=0;bottom=1;right=0;points=[[0,0.5],[1,0.5]];portConstraint=eastwest;fillColor=#CCFFCC;" vertex="1" parent="qIVOGHb0BJN2lnLGOt8N-272">
          <mxGeometry y="40" width="200" height="30" as="geometry" />
        </mxCell>
        <mxCell id="qIVOGHb0BJN2lnLGOt8N-274" value="PK" style="shape=partialRectangle;connectable=0;top=0;left=0;bottom=0;right=0;fontStyle=1;overflow=hidden;fillColor=#CCFFCC;" vertex="1" parent="qIVOGHb0BJN2lnLGOt8N-273">
          <mxGeometry width="30" height="30" as="geometry" />
        </mxCell>
        <mxCell id="qIVOGHb0BJN2lnLGOt8N-275" value="类目ID" style="shape=partialRectangle;connectable=0;top=0;left=0;bottom=0;right=0;align=left;spacingLeft=6;fontStyle=5;overflow=hidden;fillColor=#CCFFCC;" vertex="1" parent="qIVOGHb0BJN2lnLGOt8N-273">
          <mxGeometry x="30" width="170" height="30" as="geometry" />
        </mxCell>
        <mxCell id="qIVOGHb0BJN2lnLGOt8N-276" value="" style="shape=partialRectangle;collapsible=0;dropTarget=0;pointerEvents=0;top=0;left=0;bottom=0;right=0;points=[[0,0.5],[1,0.5]];portConstraint=eastwest;fillColor=#CCFFCC;" vertex="1" parent="qIVOGHb0BJN2lnLGOt8N-272">
          <mxGeometry y="70" width="200" height="20" as="geometry" />
        </mxCell>
        <mxCell id="qIVOGHb0BJN2lnLGOt8N-277" value="" style="shape=partialRectangle;connectable=0;top=0;left=0;bottom=0;right=0;editable=1;overflow=hidden;fillColor=#CCFFCC;" vertex="1" parent="qIVOGHb0BJN2lnLGOt8N-276">
          <mxGeometry width="30" height="20" as="geometry" />
        </mxCell>
        <mxCell id="qIVOGHb0BJN2lnLGOt8N-278" value="名称" style="shape=partialRectangle;connectable=0;top=0;left=0;bottom=0;right=0;align=left;spacingLeft=6;overflow=hidden;fillColor=#CCFFCC;" vertex="1" parent="qIVOGHb0BJN2lnLGOt8N-276">
          <mxGeometry x="30" width="170" height="20" as="geometry" />
        </mxCell>
        <mxCell id="qIVOGHb0BJN2lnLGOt8N-285" value="" style="shape=partialRectangle;collapsible=0;dropTarget=0;pointerEvents=0;top=0;left=0;bottom=0;right=0;points=[[0,0.5],[1,0.5]];portConstraint=eastwest;fillColor=#CCFFCC;" vertex="1" parent="qIVOGHb0BJN2lnLGOt8N-272">
          <mxGeometry y="90" width="200" height="20" as="geometry" />
        </mxCell>
        <mxCell id="qIVOGHb0BJN2lnLGOt8N-286" value="" style="shape=partialRectangle;connectable=0;top=0;left=0;bottom=0;right=0;editable=1;overflow=hidden;fillColor=#CCFFCC;" vertex="1" parent="qIVOGHb0BJN2lnLGOt8N-285">
          <mxGeometry width="30" height="20" as="geometry" />
        </mxCell>
        <mxCell id="qIVOGHb0BJN2lnLGOt8N-287" value="父类目ID" style="shape=partialRectangle;connectable=0;top=0;left=0;bottom=0;right=0;align=left;spacingLeft=6;overflow=hidden;fillColor=#CCFFCC;labelBorderColor=none;" vertex="1" parent="qIVOGHb0BJN2lnLGOt8N-285">
          <mxGeometry x="30" width="170" height="20" as="geometry" />
        </mxCell>
        <mxCell id="qIVOGHb0BJN2lnLGOt8N-279" value="" style="shape=partialRectangle;collapsible=0;dropTarget=0;pointerEvents=0;top=0;left=0;bottom=0;right=0;points=[[0,0.5],[1,0.5]];portConstraint=eastwest;fillColor=#CCFFCC;" vertex="1" parent="qIVOGHb0BJN2lnLGOt8N-272">
          <mxGeometry y="110" width="200" height="40" as="geometry" />
        </mxCell>
        <mxCell id="qIVOGHb0BJN2lnLGOt8N-280" value="" style="shape=partialRectangle;connectable=0;top=0;left=0;bottom=0;right=0;editable=1;overflow=hidden;fillColor=#CCFFCC;" vertex="1" parent="qIVOGHb0BJN2lnLGOt8N-279">
          <mxGeometry width="30" height="40" as="geometry" />
        </mxCell>
        <mxCell id="qIVOGHb0BJN2lnLGOt8N-281" value="创建人" style="shape=partialRectangle;connectable=0;top=0;left=0;bottom=0;right=0;align=left;spacingLeft=6;overflow=hidden;strokeWidth=1;labelBorderColor=none;fillColor=none;" vertex="1" parent="qIVOGHb0BJN2lnLGOt8N-279">
          <mxGeometry x="30" width="170" height="40" as="geometry" />
        </mxCell>
        <mxCell id="qIVOGHb0BJN2lnLGOt8N-282" value="" style="shape=partialRectangle;collapsible=0;dropTarget=0;pointerEvents=0;top=0;left=0;bottom=0;right=0;points=[[0,0.5],[1,0.5]];portConstraint=eastwest;fillColor=#CCFFCC;" vertex="1" parent="qIVOGHb0BJN2lnLGOt8N-272">
          <mxGeometry y="150" width="200" height="40" as="geometry" />
        </mxCell>
        <mxCell id="qIVOGHb0BJN2lnLGOt8N-283" value="" style="shape=partialRectangle;connectable=0;top=0;left=0;bottom=0;right=0;editable=1;overflow=hidden;fillColor=#CCFFCC;" vertex="1" parent="qIVOGHb0BJN2lnLGOt8N-282">
          <mxGeometry width="30" height="40" as="geometry" />
        </mxCell>
        <mxCell id="qIVOGHb0BJN2lnLGOt8N-284" value="创建时间&#xa;" style="shape=partialRectangle;connectable=0;top=0;left=0;bottom=0;right=0;align=left;spacingLeft=6;overflow=hidden;fillColor=#CCFFCC;" vertex="1" parent="qIVOGHb0BJN2lnLGOt8N-282">
          <mxGeometry x="30" width="170" height="40" as="geometry" />
        </mxCell>
        <mxCell id="qIVOGHb0BJN2lnLGOt8N-288" value="" style="shape=partialRectangle;collapsible=0;dropTarget=0;pointerEvents=0;top=0;left=0;bottom=0;right=0;points=[[0,0.5],[1,0.5]];portConstraint=eastwest;fillColor=#CCFFCC;" vertex="1" parent="qIVOGHb0BJN2lnLGOt8N-272">
          <mxGeometry y="190" width="200" height="30" as="geometry" />
        </mxCell>
        <mxCell id="qIVOGHb0BJN2lnLGOt8N-289" value="" style="shape=partialRectangle;connectable=0;top=0;left=0;bottom=0;right=0;editable=1;overflow=hidden;fillColor=#CCFFCC;" vertex="1" parent="qIVOGHb0BJN2lnLGOt8N-288">
          <mxGeometry width="30" height="30" as="geometry" />
        </mxCell>
        <mxCell id="qIVOGHb0BJN2lnLGOt8N-290" value="" style="shape=partialRectangle;connectable=0;top=0;left=0;bottom=0;right=0;align=left;spacingLeft=6;overflow=hidden;fillColor=#CCFFCC;" vertex="1" parent="qIVOGHb0BJN2lnLGOt8N-288">
          <mxGeometry x="30" width="170" height="30" as="geometry" />
        </mxCell>
        <mxCell id="qIVOGHb0BJN2lnLGOt8N-291" value="" style="shape=partialRectangle;collapsible=0;dropTarget=0;pointerEvents=0;top=0;left=0;bottom=0;right=0;points=[[0,0.5],[1,0.5]];portConstraint=eastwest;fillColor=#CCFFCC;" vertex="1" parent="qIVOGHb0BJN2lnLGOt8N-272">
          <mxGeometry y="220" width="200" height="30" as="geometry" />
        </mxCell>
        <mxCell id="qIVOGHb0BJN2lnLGOt8N-292" value="" style="shape=partialRectangle;connectable=0;top=0;left=0;bottom=0;right=0;editable=1;overflow=hidden;fillColor=#CCFFCC;" vertex="1" parent="qIVOGHb0BJN2lnLGOt8N-291">
          <mxGeometry width="30" height="30" as="geometry" />
        </mxCell>
        <mxCell id="qIVOGHb0BJN2lnLGOt8N-293" value="" style="shape=partialRectangle;connectable=0;top=0;left=0;bottom=0;right=0;align=left;spacingLeft=6;overflow=hidden;fillColor=#CCFFCC;" vertex="1" parent="qIVOGHb0BJN2lnLGOt8N-291">
          <mxGeometry x="30" width="170" height="30" as="geometry" />
        </mxCell>
      </root>
    </mxGraphModel>
  </diagram>
</mxfile>
